<svg width="61" height="61" viewBox="0 0 61 61" fill="none" xmlns="http://www.w3.org/2000/svg">
<g id="instagram-svgrepo-com 1">
<path id="Vector" d="M38.9733 9.53125H22.0248C18.7121 9.53377 15.5358 10.8509 13.1933 13.1933C10.8509 15.5358 9.53377 18.7121 9.53125 22.0248V38.9733C9.53327 42.2863 10.8501 45.4631 13.1926 47.806C15.5352 50.1489 18.7118 51.4662 22.0248 51.4688H38.9733C42.2862 51.4657 45.4625 50.1482 47.8049 47.8055C50.1473 45.4627 51.4643 42.2862 51.4668 38.9733V22.0248C51.4653 18.7118 50.1486 15.5349 47.8059 13.1922C45.4632 10.8495 42.2863 9.53277 38.9733 9.53125ZM47.2502 38.9733C47.2497 41.1683 46.3775 43.2733 44.8254 44.8254C43.2733 46.3775 41.1683 47.2497 38.9733 47.2502H22.0248C20.938 47.2502 19.8618 47.0361 18.8577 46.6201C17.8536 46.2042 16.9412 45.5945 16.1728 44.8258C15.4044 44.0572 14.7949 43.1448 14.3791 42.1406C13.9634 41.1364 13.7495 40.0601 13.7498 38.9733V22.0248C13.7495 20.938 13.9634 19.8619 14.3792 18.8578C14.7949 17.8537 15.4045 16.9414 16.1729 16.1729C16.9414 15.4045 17.8537 14.7949 18.8578 14.3792C19.8619 13.9634 20.9381 13.7495 22.0248 13.7498H38.9733C41.1678 13.7503 43.2723 14.6223 44.8241 16.174C46.3758 17.7258 47.2478 19.8303 47.2483 22.0248L47.2502 38.9733Z" fill="black"/>
<path id="Vector_2" d="M30.5 19.6573C24.5182 19.6573 19.6572 24.5202 19.6572 30.5001C19.6572 36.48 24.5201 41.3428 30.5 41.3428C36.4799 41.3428 41.3427 36.48 41.3427 30.5001C41.3427 24.5202 36.4818 19.6573 30.5 19.6573ZM30.5 37.1243C28.7431 37.1245 27.0581 36.4269 25.8157 35.1848C24.5732 33.9427 23.8751 32.2579 23.8748 30.501C23.8746 28.7442 24.5722 27.0592 25.8143 25.8167C27.0564 24.5742 28.7412 23.8761 30.4981 23.8758C32.2549 23.8756 33.9399 24.5733 35.1824 25.8154C36.4248 27.0575 37.123 28.7423 37.1232 30.4991C37.1235 32.256 36.4258 33.941 35.1837 35.1834C33.9416 36.4259 32.2568 37.124 30.5 37.1243ZM41.3656 17.1392C41.8793 17.1395 42.3814 17.2922 42.8084 17.5778C43.2354 17.8635 43.5681 18.2693 43.7645 18.744C43.9609 19.2186 44.0122 19.7409 43.9119 20.2447C43.8116 20.7486 43.5642 21.2113 43.2009 21.5746C42.8377 21.9378 42.3749 22.1853 41.871 22.2856C41.3672 22.3859 40.845 22.3346 40.3703 22.1382C39.8956 21.9418 39.4898 21.609 39.2041 21.1821C38.9185 20.7551 38.7659 20.253 38.7655 19.7393C38.7655 18.3058 39.7377 17.1392 41.3656 17.1392Z" fill="black"/>
</g>
</svg>
