<svg width="24" height="48" viewBox="0 0 24 48" fill="none" xmlns="http://www.w3.org/2000/svg">
<g id="7935ec95c421cee6d86eb22ecd11b7e3">
<path id="Vector" d="M14.1059 11.4293C14.1059 11.9215 14.1059 13.5258 14.1059 15.805H21.9422L21.0926 22.7905H14.1059C14.1059 33.5636 14.1059 47.9999 14.1059 47.9999H4.83222C4.83222 47.9999 4.83222 33.7546 4.83222 22.7905H0V15.805H4.83222C4.83222 13.0347 4.83222 11.0648 4.83222 10.5163C4.83222 7.90311 4.63533 6.66318 5.74572 4.63817C6.85667 2.61324 9.99029 -0.0632966 15.4102 0.00114174C20.8313 0.0679284 23.1165 0.589447 23.1165 0.589447L21.9422 8.03433C21.9422 8.03433 18.4805 7.12026 16.7813 7.44603C15.0844 7.77188 14.1059 8.81717 14.1059 11.4293Z" fill="black"/>
</g>
</svg>
