<svg width="54" height="54" viewBox="0 0 54 54" fill="none" xmlns="http://www.w3.org/2000/svg">
<g id="tiktok-svgrepo-com 1">
<path id="Vector" d="M28.107 1.73652C30.8694 1.69434 33.6116 1.71627 36.3521 1.69434C36.4432 5.12165 37.8337 8.2064 40.046 10.4913L40.0427 10.4879C42.4237 12.6327 45.522 14.0232 48.9375 14.2595L48.9847 14.2628V22.7611C45.7582 22.6801 42.7241 21.9359 39.9887 20.6568L40.127 20.7141C38.804 20.078 37.6852 19.4249 36.6221 18.6959L36.7099 18.7533C36.6896 24.911 36.7301 31.0687 36.6677 37.2044C36.4939 40.3313 35.4544 43.1832 33.7871 45.5643L33.8209 45.512C31.0331 49.5046 26.5174 52.1253 21.3823 52.2805H21.3587C21.1511 52.2907 20.9064 52.2957 20.66 52.2957C17.7407 52.2957 15.012 51.4823 12.6866 50.0699L12.7541 50.1087C8.52186 47.5623 5.60248 43.2052 5.06248 38.1376L5.05573 38.0684C5.01354 37.0137 4.99329 35.959 5.03548 34.9263C5.86236 26.8617 12.6191 20.623 20.8322 20.623C21.7552 20.623 22.6597 20.7023 23.5389 20.8525L23.4444 20.839C23.4866 23.9592 23.36 27.0811 23.36 30.2013C22.6462 29.9431 21.8227 29.7929 20.9638 29.7929C17.8115 29.7929 15.1301 31.8078 14.1379 34.6208L14.1227 34.6715C13.8982 35.392 13.7683 36.2206 13.7683 37.0778C13.7683 37.4255 13.7902 37.7697 13.8307 38.1072L13.8274 38.0667C14.3876 41.5193 17.3475 44.1248 20.9165 44.1248C21.0195 44.1248 21.1207 44.1231 21.222 44.1181H21.2068C23.6756 44.0438 25.8187 42.7158 27.0304 40.7532L27.0472 40.7228C27.4978 40.0951 27.8066 39.3357 27.9095 38.5105L27.9112 38.4869C28.1222 34.712 28.0378 30.959 28.058 27.184C28.0783 18.6858 28.0378 10.2078 28.1002 1.73146L28.107 1.73652Z" fill="black"/>
</g>
</svg>
