<svg width="19" height="19" viewBox="0 0 19 19" fill="none" xmlns="http://www.w3.org/2000/svg">
<g id="videos-svgrepo-com 1">
<path id="23.Videos" fill-rule="evenodd" clip-rule="evenodd" d="M17.3478 16.9347H1.65217C1.21399 16.9347 0.793753 16.7607 0.483911 16.4508C0.174068 16.141 0 15.7208 0 15.2826V3.71736C0 3.27918 0.174068 2.85894 0.483911 2.5491C0.793753 2.23925 1.21399 2.06519 1.65217 2.06519H17.3478C17.786 2.06519 18.2062 2.23925 18.5161 2.5491C18.8259 2.85894 19 3.27918 19 3.71736V15.2826C19 15.7208 18.8259 16.141 18.5161 16.4508C18.2062 16.7607 17.786 16.9347 17.3478 16.9347ZM4.54348 2.89127H1.65217C1.43308 2.89127 1.22296 2.97831 1.06804 3.13323C0.913121 3.28815 0.826087 3.49827 0.826087 3.71736V4.54345H4.54348V2.89127ZM9.08696 2.89127H5.36957V4.54345H9.08696V2.89127ZM13.6304 2.89127H9.91304V4.54345H13.6304V2.89127ZM18.1739 3.71736C18.1739 3.49827 18.0869 3.28815 17.932 3.13323C17.777 2.97831 17.5669 2.89127 17.3478 2.89127H14.4565V4.54345H18.1739V3.71736ZM18.1739 5.36953H0.826087V13.6304H18.1739V5.36953ZM18.1739 14.4565H14.4565V16.1087H13.6304V14.4565H9.91304V16.1087H9.08696V14.4565H5.36957V16.1087H4.54348V14.4565H0.826087V15.2826C0.826087 15.5017 0.913121 15.7118 1.06804 15.8667C1.22296 16.0216 1.43308 16.1087 1.65217 16.1087H17.3478C17.5669 16.1087 17.777 16.0216 17.932 15.8667C18.0869 15.7118 18.1739 15.5017 18.1739 15.2826V14.4565ZM8.51737 11.8812C8.44564 11.9422 8.35501 11.9765 8.26087 11.9782C8.15132 11.9782 8.04626 11.9347 7.9688 11.8573C7.89134 11.7798 7.84783 11.6747 7.84783 11.5652V7.43475C7.84783 7.3252 7.89134 7.22014 7.9688 7.14268C8.04626 7.06522 8.15132 7.02171 8.26087 7.02171C8.3451 7.02431 8.42641 7.0532 8.49341 7.10432L11.7032 9.11666C11.7735 9.14007 11.836 9.18245 11.8838 9.23913C11.9315 9.2958 11.9627 9.36458 11.9739 9.43786C11.985 9.51113 11.9757 9.58607 11.947 9.65439C11.9182 9.72271 11.8712 9.78177 11.811 9.82503L8.51737 11.8812Z" fill="white"/>
</g>
</svg>
