<svg width="46" height="46" viewBox="0 0 46 46" fill="none" xmlns="http://www.w3.org/2000/svg">
<g id="chat_24dp_E3E3E3_FILL0_wght400_GRAD0_opsz24 1">
<path id="Vector" d="M11.5 26.8333H26.8334V23H11.5V26.8333ZM11.5 21.0833H34.5V17.25H11.5V21.0833ZM11.5 15.3333H34.5V11.5H11.5V15.3333ZM3.83337 42.1666V7.66665C3.83337 6.61248 4.20872 5.71005 4.95942 4.95935C5.71011 4.20866 6.61254 3.83331 7.66671 3.83331H38.3334C39.3875 3.83331 40.29 4.20866 41.0407 4.95935C41.7914 5.71005 42.1667 6.61248 42.1667 7.66665V30.6666C42.1667 31.7208 41.7914 32.6232 41.0407 33.3739C40.29 34.1246 39.3875 34.5 38.3334 34.5H11.5L3.83337 42.1666ZM9.87087 30.6666H38.3334V7.66665H7.66671V32.8229L9.87087 30.6666Z" fill="#E3E3E3"/>
</g>
</svg>
