<svg width="37" height="35" viewBox="0 0 37 35" fill="none" xmlns="http://www.w3.org/2000/svg">
<g id="search_24dp_E3E3E3_FILL0_wght400_GRAD0_opsz24 1">
<path id="Vector" d="M30.2167 30.625L20.5042 21.4375C19.7333 22.0208 18.8469 22.4826 17.8448 22.8229C16.8427 23.1632 15.7764 23.3333 14.6458 23.3333C11.8451 23.3333 9.47483 22.4158 7.5349 20.5807C5.59497 18.7457 4.625 16.5035 4.625 13.8542C4.625 11.2049 5.59497 8.96267 7.5349 7.1276C9.47483 5.29253 11.8451 4.375 14.6458 4.375C17.4465 4.375 19.8168 5.29253 21.7568 7.1276C23.6967 8.96267 24.6667 11.2049 24.6667 13.8542C24.6667 14.9236 24.4868 15.9323 24.1271 16.8802C23.7674 17.8281 23.2792 18.6667 22.6625 19.3958L32.375 28.5833L30.2167 30.625ZM14.6458 20.4167C16.5729 20.4167 18.2109 19.7786 19.5599 18.5026C20.9089 17.2266 21.5833 15.6771 21.5833 13.8542C21.5833 12.0312 20.9089 10.4818 19.5599 9.20573C18.2109 7.92969 16.5729 7.29167 14.6458 7.29167C12.7188 7.29167 11.0807 7.92969 9.73177 9.20573C8.38281 10.4818 7.70833 12.0312 7.70833 13.8542C7.70833 15.6771 8.38281 17.2266 9.73177 18.5026C11.0807 19.7786 12.7188 20.4167 14.6458 20.4167Z" fill="white"/>
</g>
</svg>
